<?xml version="1.0" standalone="no"?>
<!DOCTYPE svg PUBLIC "-//W3C//DTD SVG 20010904//EN"
 "http://www.w3.org/TR/2001/REC-SVG-20010904/DTD/svg10.dtd">
<svg version="1.0" xmlns="http://www.w3.org/2000/svg"
 width="600.000000pt" height="600.000000pt" viewBox="0 0 600.000000 600.000000"
 preserveAspectRatio="xMidYMid meet">
<metadata>
Created by potrace 1.14, written by Peter Selinger 2001-2017
</metadata>
<g transform="translate(0.000000,600.000000) scale(0.100000,-0.100000)"
fill="#000000" stroke="none">
<path d="M2925 5952 c-38 -21 -270 -154 -515 -296 -245 -142 -465 -270 -490
-284 -25 -14 -121 -70 -214 -124 -93 -54 -170 -98 -171 -98 -3 0 -189 -108
-225 -130 -8 -5 -42 -25 -75 -43 -33 -19 -159 -92 -280 -162 -291 -169 -356
-206 -472 -271 -30 -17 -59 -37 -64 -45 -5 -8 -9 -659 -9 -1509 l0 -1495 293
-169 c160 -93 317 -184 347 -202 30 -18 136 -79 235 -136 99 -57 189 -109 200
-116 32 -19 836 -483 875 -505 19 -10 167 -95 328 -188 161 -93 300 -169 309
-169 9 0 82 38 162 84 80 46 162 93 181 104 19 11 97 56 174 101 76 44 140 81
142 81 2 0 47 26 101 58 54 32 211 123 348 201 138 79 261 151 275 160 14 8
39 23 55 32 17 9 246 141 510 294 264 153 505 291 535 308 30 16 67 39 83 49
l27 19 -2 1497 -3 1496 -39 27 c-22 14 -56 35 -75 45 -20 10 -47 26 -61 35
-21 14 -1077 623 -1190 687 -19 10 -60 34 -90 52 -56 33 -90 53 -157 91 -21
12 -155 89 -298 172 -143 82 -273 158 -290 167 -16 9 -105 61 -197 114 -92 53
-173 98 -180 101 -7 2 -44 -13 -83 -33z"/>
</g>
</svg>
